# xmcd
#
# Track frame offsets:
# 150
# 13083
# 30502
# 43353
# 55675
# 75408
# 89877
# 109927
# 129324
# 142551
# 156395
# 174247
# 190020
# 203454
# 219926
# 236040
# 252430
#
# Disc length: 3584 seconds
#
#
# Revision: 0
# Processed by: cddbd v1.5.2PL0 Copyright (c) Steve Scherf et al.
# Submitted via: FreeRIP 2.944 
#
DISCID=dc0dfe11
DTITLE=Various Artist - Country Christmas
DYEAR=2008
DGENRE=Holiday
TTITLE0=Merry Christmas (Wherever In The WorldYou Are)
TTITLE1=Please Come Home For Christmas
TTITLE2=Winter Wonderland
TTITLE3=Jingle Bells
TTITLE4=Where My Heart Lives
TTITLE5=Light Of The World
TTITLE6=White Christmas
TTITLE7=The Christmas Song
TTITLE8=The Most Wonderful Time Of The Year
TTITLE9=The Sweetest Gift
TTITLE10=O' Come All Ye Faithful
TTITLE11=Do You Hear What I Hear?
TTITLE12=I'll Be Home For Christmas
TTITLE13=Something In The Air
TTITLE14=Have Yourself A Merry Little Christmas
TTITLE15=The First Noel
TTITLE16=Silent Night
EXTD=Hallmark
EXTT0=Terri Clark
EXTT1=Gary Allan
EXTT2=Travis Tritt
EXTT3=Tracy Byrd
EXTT4=Randy Travis
EXTT5=Mark Chesnutt
EXTT6=Sammy Kershaw
EXTT7=Vince Gill
EXTT8=Steve Wariner
EXTT9=Trisha Yearwood
EXTT10=Darryl Worley
EXTT11=Suzy Bogguss
EXTT12=Lee Greenwood
EXTT13=Tracy Lawrence
EXTT14=ALecia Elliott
EXTT15=Rebecca Lynn Howard
EXTT16=Julie Roberts
PLAYORDER=
